<?xml version="1.0" encoding="utf-8"?>
<!-- Generator: Adobe Illustrator 27.5.0, SVG Export Plug-In . SVG Version: 6.00 Build 0)  -->
<svg version="1.1" id="Layer_1" xmlns="http://www.w3.org/2000/svg" xmlns:xlink="http://www.w3.org/1999/xlink" x="0px" y="0px"
	 viewBox="0 0 4000 4000" style="enable-background:new 0 0 4000 4000;" xml:space="preserve">
<rect style="fill:#FFFFFF;" width="4000" height="4000"/>
<g>
	<ellipse style="fill:#E6EDFF;" cx="1990.93" cy="3286.21" rx="1173.203" ry="35.271"/>
	<path style="fill:#E6EDFF;" d="M2928.335,1935.017c0,477.413-387.013,864.426-864.405,864.426
		c-170.572,0-329.619-49.404-463.587-134.721c-42.711-27.17-82.849-58.001-120.017-92.031
		c-147.062-134.638-247.376-319.495-273.857-527.403c-4.601-36.122-6.965-72.914-6.965-110.27c0-81.218,11.19-159.8,32.149-234.325
		c102.134-363.566,436.083-630.101,832.278-630.101C2541.322,1070.59,2928.335,1457.604,2928.335,1935.017z"/>
	<path style="fill:#FFFFFF;" d="M2171.795,1935.016c0,59.579-48.298,107.877-107.874,107.877c-21.287,0-41.135-6.166-57.854-16.813
		c-5.33-3.391-10.339-7.238-14.978-11.485c-18.353-16.802-30.872-39.872-34.176-65.818c-0.574-4.508-0.869-9.099-0.869-13.761
		c0-10.136,1.396-19.942,4.012-29.243c12.746-45.371,54.421-78.634,103.865-78.634
		C2123.497,1827.14,2171.795,1875.437,2171.795,1935.016z"/>
	
		<rect x="1517.412" y="1534.52" transform="matrix(0.866 -0.5 0.5 0.866 -520.9048 1245.6272)" style="fill:#FFFFFF;" width="1093.015" height="120.63"/>
	
		<rect x="1491.293" y="2212.043" transform="matrix(0.9369 0.3496 -0.3496 0.9369 923.0632 -569.0505)" style="fill:#FFFFFF;" width="1093.015" height="120.63"/>
	<path style="fill:#E6EDFF;" d="M1632.763,2495.007v1.36c0,59.507-11.504,116.336-32.42,168.355
		c-4.476,11.148-9.391,22.087-14.725,32.776c-29.868,59.988-72.684,112.383-124.786,153.546
		c-32.044,25.33-67.601,46.413-105.815,62.351c-46.35,19.389-96.633,31.249-149.3,34.094c-8.179,0.439-16.44,0.669-24.744,0.669
		c-249.51,0-451.791-202.26-451.791-451.791c0-143.925,67.308-272.141,172.182-354.865c72.496-57.227,162.98-92.701,261.537-96.57
		c6.003-0.23,12.027-0.355,18.072-0.355c8.554,0,17.047,0.23,25.497,0.711c129.241,7.195,243.988,68.71,321.776,162.08
		C1593.231,2285.364,1632.449,2385.615,1632.763,2495.007z"/>
	<path style="fill:#B6CDFF;" d="M2063.92,2941.103c-127.791,0-252.308-23.638-370.093-70.257c-4.296-1.7-6.401-6.562-4.7-10.858
		c1.7-4.297,6.561-6.402,10.858-4.7c115.816,45.84,238.262,69.083,363.935,69.083c4.621,0,8.366,3.745,8.366,8.366
		S2068.541,2941.103,2063.92,2941.103z"/>
	<path style="fill:#B6CDFF;" d="M2592.56,2789.704c-2.787,0-5.512-1.392-7.1-3.928c-2.451-3.917-1.264-9.08,2.652-11.531
		c291.27-182.317,465.162-496.048,465.162-839.23c0-178.699-48.152-353.812-139.251-506.408c-2.369-3.967-1.072-9.104,2.895-11.472
		c3.968-2.368,9.104-1.071,11.473,2.895c45.514,76.237,80.685,158.135,104.536,243.418c24.604,87.977,37.08,179.345,37.08,271.567
		c0,88.205-11.426,175.732-33.96,260.152c-21.861,81.896-54.168,160.904-96.023,234.829
		c-82.454,145.63-201.072,269.574-343.033,358.433C2595.611,2789.292,2594.076,2789.704,2592.56,2789.704z"/>
	<path style="fill:#B6CDFF;" d="M1162.416,1515.35c-1.205,0-2.428-0.262-3.588-0.813c-4.173-1.984-5.946-6.976-3.961-11.149
		c139.196-292.644,412.085-501.455,729.978-558.568c4.545-0.815,8.897,2.207,9.714,6.755c0.817,4.548-2.207,8.897-6.755,9.714
		c-312.596,56.162-580.942,261.502-717.827,549.286C1168.544,1513.587,1165.543,1515.35,1162.416,1515.35z"/>
	<circle style="fill:#FFFFFF;" cx="2745.804" cy="2398.229" r="423.324"/>
	<circle style="opacity:0.3;fill:#1561BC;" cx="2422.159" cy="1262.332" r="423.324"/>
	<circle style="fill:#FFFFFF;" cx="2401.927" cy="1214.775" r="423.324"/>
	<path style="fill:#1A3863;" d="M2401.927,1830.383c-68.16,0-135.125-11.065-199.034-32.888
		c-61.791-21.1-119.638-51.85-171.934-91.397c-51.72-39.111-96.774-85.875-133.912-138.995
		c-37.661-53.869-66.266-112.991-85.021-175.727c-1.323-4.427,1.192-9.089,5.62-10.413c4.429-1.322,9.089,1.193,10.413,5.62
		c75.17,251.451,311.154,427.067,573.868,427.067c330.221,0,598.875-268.654,598.875-598.875
		c0-148.659-54.846-291.215-154.435-401.409c-3.099-3.428-2.831-8.719,0.598-11.817c3.428-3.098,8.72-2.83,11.816,0.597
		c102.374,113.276,158.753,259.817,158.753,412.629c0,83.103-16.277,163.724-48.381,239.625
		c-31.006,73.307-75.393,139.142-131.926,195.675c-56.534,56.534-122.369,100.92-195.676,131.927
		C2565.651,1814.105,2485.029,1830.383,2401.927,1830.383z"/>
	<path style="fill:#FFFFFF;" d="M1807.853,2137.088c0,145.493-68.542,274.965-175.09,357.918
		c-44.844,34.888-96.403,61.536-152.437,77.683c-39.908,11.504-82.096,17.674-125.728,17.674
		c-248.882,0-450.891-200.545-453.234-448.863c76.909-60.699,174.044-96.926,279.609-96.926c8.554,0,17.047,0.23,25.497,0.711
		c-4.601-36.122-6.965-72.914-6.965-110.27c0-81.218,11.19-159.8,32.149-234.325c39.092-11.002,80.339-16.879,122.946-16.879
		C1604.923,1683.813,1807.853,1886.763,1807.853,2137.088z"/>
	<circle style="fill:#FFFFFF;" cx="1383.527" cy="2044.353" r="423.324"/>
	<polygon style="fill:#B6CDFF;" points="2093.61,1503.912 2023.415,1563.419 1739.77,1803.892 1672.127,1724.118 1968.845,1472.559 
		2025.967,1424.137 	"/>
	<polygon style="fill:#B6CDFF;" points="2346.843,2249.869 2320.698,2351.145 1872.484,2235.374 1780.996,2211.738 
		1807.142,2110.462 1896.098,2133.449 	"/>
	<path style="opacity:0.3;fill:#1561BC;" d="M1807.142,2110.462l-26.145,101.276l91.487,23.635
		c11.546-32.776,19.494-66.911,23.615-101.925L1807.142,2110.462z"/>
	<path style="opacity:0.3;fill:#1561BC;" d="M2025.967,1424.137l-57.122,48.421c14.62,32.064,32.88,62.518,54.571,90.86
		l70.195-59.507L2025.967,1424.137z"/>
	<path style="fill:#6FA0FF;" d="M1789.147,2297.702l-88.263-56.098c37.704-59.323,57.633-128.036,57.633-198.711h104.581
		C1863.099,2133.471,1837.526,2221.582,1789.147,2297.702z"/>
	<path style="fill:#B6CDFF;" d="M2330.978,2631.149c-41.944-74.541-62.934-159.355-60.7-245.274l104.546,2.717
		c-1.743,67.045,14.612,133.186,47.297,191.272L2330.978,2631.149z"/>
	<path style="fill:#B6CDFF;" d="M3221.183,2410.589c-1.213,47.02-9.329,93.224-23.907,137.273
		c-3.786,11.483-8.032,22.82-12.717,33.989c-11.441,27.4-25.497,53.755-42.042,78.729l-87.2-57.75
		c22.443-33.884,39.009-71.052,49.237-110.061c6.923-26.292,10.939-53.399,11.943-80.904c0.063-1.318,0.104-2.656,0.146-3.995
		L3221.183,2410.589z"/>
	<path style="fill:#B6CDFF;" d="M2877.613,1214.766h-104.581c0-175.194-122.046-322.424-285.59-361.098
		c-27.442-6.505-56.056-9.935-85.443-9.935c-21.523,0-42.607,1.841-63.125,5.396c-174.629,30.036-307.908,182.578-307.908,365.637
		h-104.581c0-127.024,49.467-246.477,139.302-336.291c66.158-66.158,148.359-110.438,237.838-129.158
		c32.044-6.735,64.987-10.165,98.474-10.165c31.123,0,61.787,2.97,91.655,8.785c92.115,17.883,176.826,62.707,244.657,130.538
		C2828.146,968.289,2877.613,1087.742,2877.613,1214.766z"/>
	<path style="opacity:0.3;fill:#1561BC;" d="M2719.152,1152.206c-49.969-79.001-132.274-182.85-230.246-206.067
		c0,0-9.182-29.095-50.303-28.885l3.43-46.35c4.058-5.585,7.635-11.839,10.667-18.636c15.666,9.705,26.961,8.722,34.742,1.401
		c11.483-10.772,15.331-35.307,14.369-59.653c-0.669-17.068-3.723-34.031-8.157-46.079c-29.868-5.815-60.531-8.785-91.655-8.785
		c-33.487,0-66.43,3.43-98.474,10.165c0.481,1.276,1.025,2.531,1.611,3.786c8.471,17.695,18.887,26.166,32.629,29.827
		c-1.046,4.141-1.904,8.408-2.531,12.759c-0.586,4.016-1.004,8.116-1.213,12.299c-0.753,14.809,1.046,28.781,4.852,41.142
		c7.551,24.618,23.092,42.816,42.502,48.317l-1.275,15.75l-0.837,10.061c-24.221,4.183-29.199,24.723-29.199,24.723l-74.106,73.333
		c-69.756,81.887-86.823,427.423-86.823,427.423c11.734-3.744,22.255-7.885,31.688-12.173l8.555,19.829l18.866,43.736
		l14.621,116.524c38.946,14.412,80.988,23.05,125.12,24.891c1.778,0.083,3.577,0.146,5.397,0.188
		c4.141,0.126,8.345,0.188,12.55,0.188c6.149,0,12.278-0.126,18.344-0.397c5.229-0.209,10.416-0.523,15.583-0.941
		c41.33-3.242,81.301-12.383,119.034-26.585l-20.707-147.125l-3.075-21.92c13.721-1.778,29.304-4.895,47.041-9.371l-9.098-83.1
		l-3.744-34.135l102.28-34.951C2725.364,1263.062,2748.686,1198.849,2719.152,1152.206z M2548.936,1201.463l-0.523-64.547
		l55.177,51.056L2548.936,1201.463z"/>
	<g>
		<path style="fill:#1A3863;" d="M2199.219,1422.088l16.565,34.303l21.125,43.736l20.624,116.524
			c39.699,14.411,82.18,23.05,126.418,24.89c1.778,0.084,3.576,0.146,5.396,0.188c4.162,0.125,8.366,0.188,12.571,0.188
			c6.149,0,12.257-0.125,18.323-0.397c5.208-0.209,10.375-0.523,15.52-0.941l3.577-21.941l-81.176-256.37l-4.56-14.369h-124.284
			l-17.779,43.819L2199.219,1422.088z"/>
		<path style="opacity:0.75;fill:#122D5B;" d="M2363.976,1524.996l19.975,116.545c1.778,0.084,3.576,0.146,5.396,0.188
			c4.162,0.125,8.366,0.188,12.571,0.188c6.149,0,12.257-0.125,18.323-0.397L2363.976,1524.996z"/>
		<path style="fill:#244272;" d="M2330.154,1369.107l33.822,155.889l25.267,116.441l0.105,0.293
			c4.162,0.125,8.366,0.188,12.571,0.188c6.149,0,12.257-0.125,18.323-0.397c5.208-0.209,10.375-0.523,15.52-0.941
			c41.163-3.242,80.674-12.382,117.675-26.585l-28.3-147.125l-26.71-138.884l-80.778,19.745l-59.486,14.537L2330.154,1369.107z"/>
		<path style="fill:#244272;" d="M2396.952,917.255l-15.257,0.96l6.262,31.472l34.202,3.372
			C2422.159,953.059,2417.106,922.798,2396.952,917.255z"/>
		<path style="fill:#244272;" d="M2339.118,923.085l15.976,7.655l-11.026,29.117l-30.615-6.797
			C2313.452,953.059,2316.184,928.169,2339.118,923.085z"/>
		<path style="fill:#FFFFFF;" d="M2330.472,941.98l-29.01,24.835c0,0-52.33,251.026-52.606,408.065
			c0,0,95.104,38.537,200.117,17.342c0,0-52.56-47.957-22.694-442.963l-18.733-6.958L2330.472,941.98z"/>
		<path style="fill:#FDC8AA;" d="M2340.638,986.924c2.11,2.407,5.712,2.763,8.246,0.805l58.661-45.432l-10.593-14.449l1.551-69.331
			l-6.373,3.585l-53.008,29.78l-0.644,21.313l-0.618,20.432l-7.39,8.356C2327.85,967.772,2335.494,981.068,2340.638,986.924z"/>
		<path style="opacity:0.75;fill:#122D5B;" d="M2417.655,1347.726l2.98,0.2c0.471,2.866,0.927,5.675,1.411,8.442
			c13.675,80.324,30.886,116.914,103.097,110.511l-26.708-138.888L2417.655,1347.726z"/>
		<path style="fill:#3B82F4;" d="M2363.982,1262.482v61.658l42.964,2.895c0.471,2.866,0.927,5.675,1.412,8.442
			c16.669,97.949,38.615,130.86,159.122,100.102l-13.375-83.105l-5.505-34.137l100.473-34.95
			c52.732-20.32,72.724-84.531,40.796-131.174c-54.058-78.998-141.711-182.85-240.887-206.065c0,0-10.723-29.218-52.033-28.89
			c0,0,18.936,7.059,17.026,30.829c-1.711,21.104-24.769,176.462-16.612,301.404L2363.982,1262.482z M2522.192,1201.466
			l-3.85-64.553l57.808,51.063L2522.192,1201.466z"/>
		<path style="fill:#EFA37D;" d="M2338.477,913.195c9.5,1.068,36.212,0.246,53.653-38.017v-13.076l-53.008,29.78L2338.477,913.195z"
			/>
		<path style="fill:#244272;" d="M2406.01,851.098l11.17-50.57l36.863-6.521C2457.835,835.529,2447.663,877.655,2406.01,851.098z"/>
		<path style="fill:#FDC8AA;" d="M2416.05,807.85c0.041,50.422-28.805,91.311-64.436,91.358
			c-35.652,0.029-64.574-40.806-64.633-91.227c-0.004-4.172,0.192-8.277,0.569-12.293c4.184-44.59,31.175-79.015,63.867-79.065
			c25.29-0.014,47.192,20.542,57.814,50.486C2413.575,779.359,2416.026,793.198,2416.05,807.85z"/>
		<path style="fill:#EFA37D;" d="M2409.231,767.109l-10.615,44.105c0,0-3.564-21.616-61.19-13.656
			c-24.039,3.318-39.729,1.458-49.876-1.869c4.184-44.59,31.175-79.015,63.867-79.065
			C2376.707,716.609,2398.609,737.165,2409.231,767.109z"/>
		<path style="fill:#244272;" d="M2315.379,674.559c47.215,15.775,54.024,39.79,63.353,42.041
			c9.329,2.251,37.013-9.367,58.807,20.284c7.839,10.665,14.374,33.798,16.504,57.121l-36.863,6.521l1.485-6.721
			c0,0-11.08,33.173-20.125,31.675c-9.045-1.498,15.399-45.99-39.048-42.727c-54.448,3.263-83.08,10.265-104.225-29.656
			C2234.121,713.179,2268.164,658.784,2315.379,674.559z"/>
		<path style="fill:#FDC8AA;" d="M2404.275,807.586c2.022-6.078,6.397-11.237,12.413-13.435c4.944-1.807,11.444-1.814,17.67,5.386
			c12.451,14.4-9.844,44.099-25.961,36.486l-6.228-9.602C2401.657,818.173,2402.822,811.952,2404.275,807.586z"/>
		<path style="fill:#FFFFFF;" d="M2370.205,859.648l-45.392-4.99c0,0-1.717,29.924,17.848,31.801
			C2362.225,888.336,2368.086,872.92,2370.205,859.648z"/>
		<circle style="fill:#B6CDFF;" cx="2344.502" cy="1048.544" r="7.565"/>
		
			<ellipse transform="matrix(0.3827 -0.9239 0.9239 0.3827 353.8088 2883.0173)" style="fill:#B6CDFF;" cx="2334.273" cy="1176.753" rx="7.565" ry="7.565"/>
		<path style="fill:#1A71D8;" d="M2406.946,1327.036c0.471,2.866,0.927,5.675,1.412,8.442
			c40.925,11.222,108.487,15.457,145.747,16.997l-5.505-34.137C2496.396,1336.504,2406.946,1327.036,2406.946,1327.036z"/>
		<path style="fill:#122D5B;" d="M2199.213,1422.09l16.569,34.308c34.665-18.167,51.991-47.969,51.991-47.969l-2.168-19.45
			l-54.072,2.738L2199.213,1422.09z"/>
		<path style="fill:#3B82F4;" d="M2339.118,923.085c0,0-18.387,4.336-19.885,24.247c-1.499,19.911-50.419,277.253-48.492,441.999
			c0,0-25.799,36.717-95.594,59.411c0,0-0.749-345.549,64.764-427.441l70.33-73.328
			C2310.24,947.974,2314.257,926.885,2339.118,923.085z"/>
		<path style="fill:#FDC8AA;" d="M2261.969,1283.886c22.644,30.501,52.447,36.747,90.862,29.574
			c2.995-0.57,6.759-0.898,11.151-1.055v-42.066c-8.684,0.128-14.046,0.157-14.046,0.157s-55.883-49.923-52.275-32.184
			c3.593,17.753,25.838,33.467,5.033,27.264C2281.875,1259.36,2239.325,1253.385,2261.969,1283.886z"/>
	</g>
	<path style="fill:#B6CDFF;" d="M3221.183,2410.589l-104.539-2.719c2.573-99.08-33.591-193.224-101.82-265.093
		c-22.966-24.2-48.63-44.886-76.344-61.766c-14.495-8.847-29.555-16.67-45.116-23.384c-43.025-18.678-89.688-29.073-137.984-30.307
		c-3.012-0.084-6.045-0.125-9.036-0.125c-51.537-0.105-100.774,10.416-145.577,29.534
		c-120.415,51.308-208.849,164.653-223.804,300.629c-1.151,10.291-1.862,20.707-2.134,31.228l-92.806-2.405l-11.755-0.314
		c3.305-126.983,55.867-245.096,148.003-332.568c43.171-40.975,92.596-72.935,146.016-94.981
		c60.595-25.016,126.292-37.294,193.789-35.537c2.217,0.063,4.434,0.125,6.63,0.23c28.572,1.129,56.662,4.748,84.042,10.772
		c76.24,16.733,146.895,51.977,206.569,103.326c12.257,10.542,24.054,21.774,35.349,33.654
		C3178.138,2162.899,3224.488,2283.585,3221.183,2410.589z"/>
	<path style="fill:#6FA0FF;" d="M1863.093,2042.902h-104.581c0-22.067-1.946-43.673-5.669-64.694
		c-27.505-155.91-152.688-278.542-309.874-302.198c-18.113-2.719-36.645-4.141-55.491-4.141c-40.117,0-78.749,6.4-114.956,18.218
		c-148.484,48.505-256.078,188.33-256.078,352.815H911.864c0-127.045,49.488-246.498,139.302-336.312
		c58.796-58.795,130.245-100.293,208.221-121.962c41.184-11.441,84.188-17.339,128.091-17.339c20.351,0,40.515,1.276,60.406,3.765
		c104.163,13.135,200.461,60.092,275.906,135.537c63.585,63.565,106.944,141.98,126.857,227.422
		c4.372,18.762,7.614,37.858,9.684,57.206C1862.172,2008.265,1863.093,2025.521,1863.093,2042.902z"/>
	<path style="opacity:0.3;fill:#1561BC;" d="M2894.953,2059.405c15.018,16.294,29.429,21.962,43.527,21.606
		c39.364-0.983,76.24-48.944,116.838-43.903c-59.674-51.349-130.329-86.593-206.569-103.326
		c6.672,32.838,4.079,78.624,44.614,123.845C2893.865,2058.213,2894.409,2058.82,2894.953,2059.405z"/>
	<path style="opacity:0.3;fill:#1561BC;" d="M3197.276,2547.862c-3.786,11.483-8.032,22.82-12.717,33.989
		c-12.006-17.8-48.086-56.244-80.005-89.082c-29.471-30.37-55.386-55.909-55.386-55.909l-126.71-117.528l-28.53-26.48l-0.857,1.004
		c42.293,106.254,126.878,196.592,126.878,196.592c-3.765,3.43-7.781,6.651-11.985,9.747c0.983,2.51,1.924,5.041,2.803,7.593
		c0.983,2.803,1.883,5.605,2.74,8.429c0.544,1.778,1.087,3.577,1.59,5.355c0,0.021,0,0.021,0,0.021
		c4.434,15.687,7.258,31.228,9.036,44.74c2.949,21.962,2.782,44.385-0.272,66.744l-12.989,94.96
		c-45.89,35.014-98.223,61.598-154.257,77.327c-11.002,3.096-22.15,5.752-33.445,7.99c-0.376-20.958-0.105-33.57-0.105-33.57
		l-31.165,38.59c-21.042,2.594-42.439,3.681-64.045,3.116c-45.702-1.192-89.02-9.622-128.949-24.137
		c51.078-138.842,114.056-219.683,132.253-241.332c-5.417-0.23-8.429-0.46-8.429-0.46s126.041-168.731,31.793-187.242
		c-51.266-10.04-67.099-43.694-70.885-72.37c-2.949-22.422,1.444-41.77,2.071-44.322l0.084-0.272l-53.002,56.202l-3.744-3.012
		l-9.579,9.601l-7.07,7.09l-82.096,79.754l-87.973,6.882v-70.341l70.53-21.418l51.077-54.738l5.041-5.396l-4.183-3.389
		c0,0,48.63-59.256,104.706-120.478c2.677-2.949,5.501-5.605,8.387-8.052c0.063-3.493,0.188-7.467,0.398-12.069
		c0.418-10.04-1.297-18.678-3.911-25.873c-4.079-11.107-10.333-18.762-14.369-22.883c-4.665,5.438-9.768,10.605-15.269,15.185
		c-25.141,21.021-38.695-6.296-43.965-21.69c-0.482-1.422-0.899-2.74-1.255-3.911c-1.046-3.451-3.556-6.191-6.881-7.551
		l-1.736-0.711c-2.385-0.962-3.723-3.409-3.326-6.024c1.443-9.099,4.099-30.956,0.962-51.872
		c-7.446-2.907-19.808-13.658-24.242-28.341c60.595-25.016,126.292-37.294,193.789-35.537c2.217,0.063,4.434,0.125,6.63,0.23
		c20.791,35.097-2.134,79.963-18.365,104.184c-2.594,3.848-4.999,7.174-7.049,9.851c-3.137,4.141-7.3,6.275-12.069,7.007
		c7.049,19.933,27.003,46.183,38.883,60.762c15.478,2.468,29.555,6.756,40.285,10.709c3.409,1.255,6.672,2.782,9.789,4.518
		c15.896,4.518,58.837,23.133,140.264,100.084l-5.877,6.839l2.552,2.698l146.309,153.462l17.068,28.739L3197.276,2547.862z"/>
	<g>
		<path style="fill:#FDC8AA;" d="M2612.39,2059.684c0,0,12.477,8.969,20.083,26.43c3.138,7.193,5.452,15.839,5.726,25.88
			c0.931,34.427,3.512,36.069,3.512,36.069l93.822-32.301c0,0-52.392-54.703-56.395-82.463
			c-2.054-14.263-18.884-17.658-34.764-17.569c-15.025,0.062-29.213,3.232-29.213,3.232L2612.39,2059.684z"/>
		<path style="fill:#EFA37D;" d="M2612.39,2059.684c0,0,12.477,8.969,20.083,26.43c5.982-13.762,14.687-39.856,11.901-70.384
			c-15.025,0.062-29.213,3.232-29.213,3.232L2612.39,2059.684z"/>
		<path style="fill:#244272;" d="M3020.241,2633.078l-6.338,94.953c-43.448,35.026-93.915,61.605-148.85,77.335
			c-10.793,3.088-21.763,5.753-32.89,7.996c-1.84-20.971-2.454-33.583-2.454-33.583l-28.475,38.596
			c-20.844,2.597-42.173,3.675-63.813,3.112c-45.791-1.19-89.699-9.613-130.646-24.13
			c48.917-164.169,120.123-247.267,120.123-247.267l131.985-29.022l132.196-29.058c4.94,9.585,9.115,19.591,12.601,29.578
			c5.534,15.69,9.441,31.233,12.166,44.736C3020.317,2588.283,3021.723,2610.708,3020.241,2633.078z"/>
		<path style="opacity:0.7;fill:#122D5B;" d="M2878.288,2715.593c-0.34,1.812-7.331,38.141-13.234,89.772
			c-10.793,3.088-21.763,5.753-32.89,7.996c-1.84-20.971-2.454-33.583-2.454-33.583L2878.288,2715.593z"/>
		<path style="opacity:0.7;fill:#122D5B;" d="M2793.252,2554.951c0,0,117.725,19.383,210.43-33.371
			c-3.498-9.976-7.655-19.994-12.601-29.567l-132.198,29.056C2822.929,2539.619,2793.252,2554.951,2793.252,2554.951z"/>
		<path style="fill:#FDC8AA;" d="M2543.317,2250.933l-56.266,65.178l-235.464,73.01c0,0-54.223-27.422-57.769-16.963
			c-3.546,10.458,23.957,16.084,23.957,16.084s-56.787,1.253-57.245,32.893s81.354,5.388,81.354,5.388l268.818-23.028
			l94.605-102.046L2543.317,2250.933z"/>
		<polygon style="fill:#EFA37D;" points="2538.969,2255.97 2534.313,2261.364 2586.964,2321.235 2602.441,2304.541 		"/>
		<path style="fill:#FDC8AA;" d="M2915.824,2224.328l162.499,158.799l125.338,188.801c0,0,36.8,11.871,54.77,48.355
			c17.97,36.484-49.436-1.649-57.533-12.046c0,0,20.248,25.811,10.819,24.657c-9.429-1.155-30.563-27.898-29.644-42.245
			c0.918-14.347-150.259-153.795-150.259-153.795l-178.226-155.25L2915.824,2224.328z"/>
		<polygon style="fill:#EFA37D;" points="2918.532,2226.975 2926.013,2234.286 2896.892,2319.327 2866.509,2292.86 		"/>
		<path style="fill:#E59D29;" d="M2769.227,2118.607c0,0,40.556,0.326,154.71,101.522l-60.379,76.469
			C2863.558,2296.598,2707.169,2196.669,2769.227,2118.607z"/>
		<path style="fill:#1B365B;" d="M2541.005,1980.338c0,0-31.15-18.317-22.422-36.58c8.728-18.263,36.981-5.46,36.981-5.46
			S2539.844,1958.374,2541.005,1980.338z"/>
		<path style="fill:#FDC8AA;" d="M2555.066,1920.961c0,0-26.197,28.528-17.392,57.841c6.922,23.047,5.574,49.477,4.681,59.723
			c-0.228,2.619,1.29,5.065,3.734,6.034l1.791,0.71c3.422,1.356,6.128,4.088,7.404,7.541c5.124,13.874,21.167,48.559,47.032,25.615
			c31.865-28.265,46.917-78.166,46.917-78.166S2636.077,1900.211,2555.066,1920.961z"/>
		<path style="fill:#244272;" d="M2539.716,1986.672c-0.591-2.647-1.257-5.274-2.042-7.87c-0.263-0.892-0.512-1.787-0.711-2.679
			c-5.752-5.579-21.48-22.73-10.067-33.194c3.402-3.106,8.899-3.749,15.401-2.427c19.852,4.001,49.031,26.189,55.9,51.126
			c0,0,5.602-25.708,22.899-22.739c17.301,2.983,10.049,38.734-3.412,46.482c0,0,8.465,6.667,19.926,13.597
			c18.825,11.387,45.702,23.533,56.364,8.08c17.152-24.848,62.084-104.5-17.885-142.949c-79.97-38.45-157.178,12.377-164.141,42.582
			C2506.135,1961.882,2528.643,1982.473,2539.716,1986.672z"/>
		<path style="fill:#FFFFFF;" d="M2649.037,1899.425l28.034,16.485c7.618,4.48,17.425,1.935,21.905-5.683l1.571-2.671
			c4.48-7.618,1.936-17.425-5.683-21.905l-28.034-16.485c-7.618-4.48-17.425-1.936-21.905,5.683l-1.571,2.671
			C2638.875,1885.138,2641.419,1894.945,2649.037,1899.425z"/>
		<path style="fill:#244272;" d="M2665.153,1881.755c0,0,54.205-79.747,136.142-54.962s105.402,86.838,153.42,89.728
			c48.018,2.89,150.37-75.842,213.23,24.488c62.86,100.33-61.309,156.484-131.213,107.091
			c-69.904-49.392-114.856,82.59-185.531,11.298c-70.675-71.292-32.552-144.411-87.369-166.41
			c-54.817-21.998-92.245-1.418-92.245-1.418L2665.153,1881.755z"/>
		<path style="fill:#F4B545;" d="M2606.384,2307.559l49.07-56.213l-0.065,0.287c-0.441,2.552-3.478,21.885,1.037,44.324
			c5.793,28.665,23.985,62.316,75.942,72.365c95.544,18.497-18.691,187.244-18.691,187.244s209.838,14.933,292.678-65.115
			c0,0-98.551-97.927-146.566-209.773c-42.475-98.915-30.545-101.37-58.421-139.191c-8.792-11.893-20.885-20.935-34.809-25.962
			c-33.643-12.107-98.568-27.389-135.741,16.576c-51.793,61.24-96.276,120.481-96.276,120.481L2606.384,2307.559z"/>
		<path style="fill:#E59D29;" d="M2656.426,2295.956c4.712-33.921,22.309-76.004,23.046-77.771l-24.018,33.16l-0.065,0.287
			C2654.948,2254.184,2651.912,2273.518,2656.426,2295.956z"/>
	</g>
	<path style="fill:#B6CDFF;" d="M2745.73,2873.846c-4.118,0-8.235-0.053-12.356-0.16c-83.768-2.176-165.575-26.419-236.579-70.106
		c-68.837-42.354-126.176-101.979-165.818-172.43l91.143-51.285c63.795,113.375,184.101,185.901,313.971,189.275
		c128.692,3.34,248.031-58.826,319.23-166.305l87.186,57.757c-43.714,65.988-103.724,120.52-173.544,157.698
		C2900.516,2854.735,2823.588,2873.846,2745.73,2873.846z"/>
	<path style="opacity:0.3;fill:#1561BC;" d="M1928.058,1969.486c0,0-22.171,19.389-67.727,21.732
		c-8.137,0.418-17.005,0.293-26.627-0.586c0,0-23.259,23.991-52.437,52.27c-28.614,27.693-62.895,59.528-86.573,76.888
		c-8.304,6.108-16.419,11.044-24.054,14.244l1.619,15.622c0.334,2.928-1.924,5.375-4.853,5.25l-59.891,0.567
		c-2.552-0.105-4.664-2.175-4.853-4.727l-0.418-5.919c-24.577-3.89-66.681-17.444-111.379-62.791l37.378,125.33l3.619,12.111
		l-47.815,5.773l101.569,472.247c-29.868,59.988-72.684,112.383-124.786,153.546l-78.08-262.687l-13.073,153.211l-14.662,171.827
		c-46.35,19.389-96.633,31.249-149.3,34.094l22.966-635.686l4.643-57.248l-98.285,5.354l27.86-214.977l28.3-218.219
		c0,0,3.326-20.602,19.473-39.95c12.717-15.248,31.605-27.17,51.475-30.454c4.329-0.711,9.433-1.443,15.143-2.029l-2.845-32.399
		l27.045,7.132l1.318-19.682c-15.143-4.476-24.786-12.843-30.287-19.243c-4.204-4.874-6.003-8.597-6.003-8.597
		c-19.306-27.17-18.908-62.644-7.132-96.863c41.184-11.441,84.188-17.339,128.091-17.339c20.351,0,40.515,1.276,60.406,3.765
		c-1.004,17.674-7.592,30.266-16.795,39.197l4.915,9.35l19.87,37.566c0.293,0.565,0.23,1.234-0.167,1.715l-13.031,15.771
		c0,0,0.125,0.481,0.293,1.36c1.527,8.052,6.442,49.007-52.96,43.694l3.619,22.318l1.904,11.839l10.667,2.824l2.112,16.879
		c32.859,15.227,64.589,40.682,88.413,82.285c65.698,114.642,90.986,160.093,98.035,172.873c0.585-1.15,1.631-2.029,2.97-2.364
		l52.897-13.365c2.907-0.732,5.878,1.339,6.233,4.351l1.38,11.692l94.604-50.826l76.637-41.163c3.158-1.673,6.693-2.615,10.333-2.74
		c2.865-0.105,6.63-0.23,10.834-0.293c16.607-0.251,39.929,0.209,40.599,4.832c1.004,7.195-39.26,7.551-32.692,18.344
		c6.589,10.793,26.752,19.682,58.733,10.709L1928.058,1969.486z"/>
	<g>
		<polygon style="fill:#FDC8AA;" points="1356.644,1779.744 1460.233,1798.094 1453.666,1743.071 1449.983,1712.32 
			1387.528,1680.86 1368.514,1671.297 		"/>
		<path style="fill:#EFA37D;" d="M1387.528,1680.86c21.432,50.408,49.298,60.968,66.138,62.211l-3.683-30.75L1387.528,1680.86z"/>
		<polygon style="fill:#FDC8AA;" points="1577.742,3176.037 1602.56,3259.123 1687.804,3242.937 1666.763,3151.758 		"/>
		<polygon style="fill:#FDC8AA;" points="1217.989,3160.93 1210.975,3242.937 1293.522,3246.533 1308.629,3155.535 		"/>
		<polygon style="fill:#1A3863;" points="1196.946,3176.584 1330.752,3187.367 1407.03,2589.419 1444.991,2291.987 
			1447.83,2269.645 1276.174,2274.282 1267.632,2274.503 1264.636,2312.864 		"/>
		<polygon style="opacity:0.75;fill:#11294C;" points="1364.739,2395.348 1368.468,2891.702 1407.031,2589.418 		"/>
		<path style="fill:#244272;" d="M1273.556,2264.786c0,0,0.599,3.461,2.618,9.497c2.529,7.676,7.321,19.546,15.952,33.812
			c0.288,0.489,0.599,0.976,0.909,1.465c11.759,19.058,30.307,42.176,59.305,65.295l54.69,214.565l154.64,606.579l127.328-12.958
			l-173.409-1003.495l-48.234,16.995l-28.687,10.094L1273.556,2264.786z"/>
		<path style="fill:#15315E;" d="M1591.09,3239.342c13.76,1.377,58.632,2.63,90.858-33.917c1.594-1.808,4.333-2.031,6.185-0.487
			l64.954,54.186l19.383,3.852c5.124,1.018,8.938,5.332,9.321,10.542l0.833,11.335c0.171,2.325-1.669,4.305-4,4.305h-183.985
			c-2.524,0-4.614-1.96-4.776-4.479l-2.673-41.583C1587.049,3240.905,1588.907,3239.123,1591.09,3239.342z"/>
		<path style="fill:#15315E;" d="M1212.175,3228.914c0,0,12.048,19.603,83.25,6.157l2.942-17.719l44.069,51.701
			c1.512,1.773,2.342,4.028,2.342,6.358v11.339c0,1.329-1.077,2.406-2.405,2.406h-140.203c-2.916,0-5.265-2.377-5.231-5.292
			C1197.098,3270.007,1198.8,3233.421,1212.175,3228.914z"/>
		<path style="opacity:0.5;fill:#11294C;" d="M1264.636,2312.864l28.399-3.305l151.955-17.572l25.47-2.951v-23.54l-2.818-68.956
			h-0.288l-28.687,10.094l-165.112,58.151c0,0,0.599,3.461,2.618,9.497l-8.542,0.221L1264.636,2312.864z"/>
		<polygon style="fill:#FFFFFF;" points="1518.503,2012.646 1571.736,2220.542 1438.654,2236.495 1454.48,2012.646 		"/>
		<path style="fill:#FDC8AA;" d="M1519.268,1659.934l-13.71,15.775c0,0,11.504,53.234-58.986,44.591
			c-70.504-8.627-87.047-133.802-87.047-133.802l123.011-4.314l10.365,21.314l8.329,17.156l18.266,37.573
			C1519.766,1658.796,1519.681,1659.465,1519.268,1659.934z"/>
		<path style="fill:#EFA37D;" d="M1501.229,1620.654c-8.571,5.126-24.588,10.45-53.675,9.283l16.458-27.251l28.888,0.812
			L1501.229,1620.654z"/>
		<polygon style="fill:#FFFFFF;" points="1335.335,1722.935 1465.63,1757.734 1468.597,1793.612 1336.954,1758.274 		"/>
		<path style="fill:#F4B545;" d="M1667.408,2147.169c0,0-84.698,9.169-161.31-101.968l-19.89,191.294l-4.399,42.313l-319.387,7.916
			l85.239-458.957c0,0,4.2-20.602,21.157-39.95c13.369-15.248,32.76-27.165,52.764-30.454
			c45.047-7.418,169.88-14.436,230.375,99.534c74.447,140.281,92.799,176.971,92.799,176.971L1667.408,2147.169z"/>
		<path style="fill:#E59D29;" d="M1506.099,2045.202l-19.89,191.294c-36.106-179.747-17.612-272.76-17.612-272.76
			C1481.283,1999.343,1506.099,2045.202,1506.099,2045.202z"/>
		<path style="fill:#FDC8AA;" d="M1978.571,1968.683c0,0-32.006,28.774-95.319,23.008c0,0-95.195,94.088-144.471,129.154
			c-10.578,7.545-20.787,13.326-30.012,16.245l-6.706-57.762l-5.154-44.378l184.378-96.849c3.232-1.68,6.791-2.62,10.436-2.748
			c14.223-0.512,50.657-1.238,51.24,4.556c0.712,7.19-39.566,7.546-33.458,18.338c6.122,10.792,31.664,14.024,64.025,5.04
			L1978.571,1968.683z"/>
		<path style="fill:#EFA37D;" d="M1738.78,2120.845c-10.578,7.545-20.787,13.326-30.012,16.245l-6.706-57.762l2.036-44.378
			L1738.78,2120.845z"/>
		<path style="fill:#244272;" d="M1421.929,1632.634c0,0,130.744,11.6,83.266-120.583
			c-47.478-132.183-241.346,72.836-176.064,170.489c0,0,14.028,32.012,59.887,30.933c0,0,23.739,1.079,19.138-51.794
			C1408.156,1661.678,1399.642,1632.506,1421.929,1632.634z"/>
		<path style="fill:#FDC8AA;" d="M1421.929,1632.634c0,0-10.521-20.772-31.292-8.093s9.442,39.385,21.041,38.846L1421.929,1632.634z
			"/>
		<path style="fill:#FFFFFF;" d="M1645.759,2027.411l53.458-13.365c2.928-0.732,5.809,1.347,6.038,4.356l10.297,135.52
			c0.221,2.911-2.151,5.362-5.068,5.235l-60.394-2.622c-2.553-0.111-4.586-2.175-4.657-4.729l-3.362-119.533
			C1642.007,2029.988,1643.541,2027.966,1645.759,2027.411z"/>
		<polygon style="opacity:0.75;fill:#11294C;" points="1523.668,2226.304 1526.708,2243.895 1485.27,2245.526 1486.809,2230.723 		
			"/>
	</g>
	<path style="fill:#6FA0FF;" d="M1387.484,2518.509c-64.185,0-126.477-12.583-185.147-37.397
		c-56.642-23.958-107.501-58.244-151.164-101.907c-43.663-43.663-77.949-94.521-101.907-151.164
		c-24.815-58.669-37.397-120.962-37.397-185.146h104.581c0,204.589,166.445,371.034,371.034,371.034
		c127.662,0,244.821-64.42,313.4-172.322l88.263,56.097c-42.148,66.315-100.609,121.689-169.063,160.136
		C1549.412,2497.528,1468.98,2518.509,1387.484,2518.509z"/>
	<path style="opacity:0.3;fill:#1561BC;" d="M2008.124,2423.319c0,0,30.947,90.616-34.647,168.338l138.525,85.674
		c0,0,67.136-121.412,32.37-188.289L2008.124,2423.319z"/>
	<path style="opacity:0.3;fill:#1561BC;" d="M1777.923,2555.723c0,0-0.983,95.75-88.707,147.204l102.106,126.9
		c0,0,103.723-92.139,93.202-166.776L1777.923,2555.723z"/>
	<path style="fill:#FFFFFF;" d="M1950.827,2392.567c0,0,46.653,83.621-3.983,171.82l151.614,59.519
		c0,0,44.341-131.461-1.825-191.043L1950.827,2392.567z"/>
	<path style="fill:#FFFFFF;" d="M1787.928,2496.445c0,0-15.164,94.546-109.546,132.43l82.169,140.632
		c0,0,116.234-75.747,116.892-151.119L1787.928,2496.445z"/>
	<g>
		<path style="fill:#6FA0FF;" d="M2453.648,3214.707h-341.206c55.986-90.636,70.633-342.539,70.633-342.539h199.94
			c0,0,0.045,0.889,0.155,2.578c1.045,16.135,7.312,105.66,23.715,192.851c0.067,0.333,0.133,0.645,0.2,0.978
			C2417.843,3125.405,2432.912,3181.124,2453.648,3214.707z"/>
		<path style="fill:#B6CDFF;" d="M2528.292,3286.989H2037.8v-42.211c0-25.256,20.474-45.73,45.73-45.73h399.031
			c25.256,0,45.73,20.474,45.73,45.73V3286.989z"/>
		<path style="opacity:0.3;fill:#1561BC;" d="M2406.886,3067.596c-32.605-152.178-225.322-174.115-225.322-174.115l201.607-18.736
			C2384.216,2890.881,2390.483,2980.406,2406.886,3067.596z"/>
		<circle style="fill:#6FA0FF;" cx="2283.046" cy="2725.991" r="137.203"/>
		<path style="fill:#B6CDFF;" d="M2407.353,2893.487H2158.74c-19.111,0-34.748-15.636-34.748-34.748v-2.479
			c0-19.111,15.636-34.748,34.748-34.748h248.614c19.111,0,34.748,15.636,34.748,34.748v2.479
			C2442.101,2877.85,2426.464,2893.487,2407.353,2893.487z"/>
		
			<ellipse transform="matrix(0.7674 -0.6412 0.6412 0.7674 -1169.8961 2123.9829)" style="fill:#FFFFFF;" cx="2342.531" cy="2674.456" rx="28.626" ry="62.733"/>
	</g>
	<g>
		<path style="fill:#3B82F4;" d="M1710.37,1381.083c5.997,14.253-8.344,28.579-22.597,22.582l-61.748-25.969
			c-6.203-2.61-13.256-2.038-19.063,1.364c-70.825,41.38-159.905,39.665-229.205-5.176c-12.757-8.255-24.855-17.963-36.043-29.151
			c-82.409-82.424-85.4-214.146-9.018-300.162c2.405-2.698,4.883-5.352,7.434-7.962c5.088-5.191,10.396-10.074,15.91-14.619
			c7.596-6.305,15.573-12.01,23.843-17.098c33.228-20.485,71.396-31.38,109.859-32.568c56.513-1.76,113.657,17.391,156.679,57.833
			c35.544,33.418,57.393,75.664,65.516,119.933c9.355,50.838,0.616,104.331-26.189,150.198c-3.387,5.807-3.959,12.83-1.349,19.033
			L1710.37,1381.083z"/>
		<circle style="fill:#FFFFFF;" cx="1496.57" cy="1189.868" r="33.891"/>
		<circle style="fill:#FFFFFF;" cx="1597.222" cy="1189.868" r="33.891"/>
		<circle style="fill:#FFFFFF;" cx="1395.919" cy="1189.868" r="33.891"/>
	</g>
	<g>
		<path style="fill:#61D14A;" d="M2452.939,3284.034h277.058c29.415-30.16,44.916-74.553,56.978-116.831
			c6.011-21.067,11.695-42.847,9.765-64.746c-1.93-21.899-13.062-44.223-32.309-52.879c-17.448-7.847-38.369-2.924-53.898,8.541
			c-11.849,8.747-21.002,20.792-28.569,33.866c-1.585,2.739-5.951,1.566-5.771-1.558c1.514-26.311,2.249-52.759-2.129-78.651
			c-5.154-30.481-18.19-60.596-41.303-79.803c-23.114-19.207-57.372-25.146-82.645-9.22c-15.323,9.656-25.834,25.856-34.193,42.446
			c-17.636,35.001-27.844,74.098-29.731,113.647c-0.152,3.182-4.311,4.541-6.437,2.085c-12.239-14.133-25.157-27.804-41.083-36.847
			c-18.614-10.569-42.469-13.747-60.621-2.326c-16.357,10.292-25.183,30.713-26.249,50.71c-1.066,19.997,4.606,39.726,11.715,58.31
			C2382.98,3201.659,2413.887,3247.652,2452.939,3284.034z"/>
	</g>
	<g>
		<path style="fill:#435E6D;" d="M2724.561,3283.404c-26.86-3.458-52.188-15.558-70.185-33.527
			c-17.996-17.969-28.519-41.666-29.156-65.663c-0.223-8.403,0.884-17.234,6.233-24.181c9.039-11.739,28.01-14.65,43.395-10.58
			c13.669,3.616,25.183,11.536,36.108,19.763c1.915,1.442,4.747,0.521,5.336-1.737c3.906-14.98,8.542-30.073,18.727-42.438
			c11.283-13.7,31.298-23.271,49.707-18.557c12.467,3.192,21.976,12.193,28.991,21.85c14.246,19.612,20.467,43.573,17.922,66.747
			c-0.298,2.712,3.451,3.947,4.908,1.602c3.068-4.937,6.673-9.551,11.188-13.538c10.368-9.156,26.938-14.147,40.038-8.343
			c7.64,3.385,13.064,9.986,15.667,17.184c2.603,7.198,2.611,14.959,1.43,22.444c-5.277,33.468-36.002,62.611-73.385,69.606
			L2724.561,3283.404z"/>
	</g>
</g>
</svg>
